<svg
  width="212"
  height="188"
  viewBox="0 0 212 188"
  fill="none"
  xmlns="http://www.w3.org/2000/svg"
>
  <g opacity="0.3" filter="url(#filter0_f_111_408)">
    <path
      d="M88.024 112.58C84.6158 112.809 81.9846 111.661 80.8128 108.309C79.6479 104.989 81.0498 102.258 83.9471 99.6259C80.431 98.4612 77.6759 96.7617 77.6488 92.7893C77.6265 89.3828 79.5102 87.2043 82.5009 85.8125C82.815 85.7286 83.1226 85.6553 83.4368 85.5714C85.0526 85.4106 86.8353 85.3799 87.9445 86.4278C89.9756 88.338 90.2521 86.9464 91.461 85.2971C93.1218 83.0123 93.4901 81.8929 90.6998 80.7351C89.6854 80.3077 89.1523 78.8005 88.408 77.7861C88.3147 77.3397 88.2214 76.8934 88.1216 76.4574C88.2569 73.262 89.3477 70.5883 92.4841 69.1838C95.9639 67.6265 98.6761 68.9535 101.285 71.7481C102.519 68.0062 104.424 65.2198 108.336 64.9785C111.681 64.7837 113.731 66.5754 114.93 69.5109C114.995 69.825 115.051 70.1331 115.116 70.4472C114.84 71.8824 115.032 73.7165 114.208 74.6607C111.992 77.2157 113.592 77.4782 115.363 78.7685C117.494 80.3205 118.082 79.7967 119.278 77.7496C119.951 76.5838 121.536 75.9424 122.712 75.0526C123.042 74.9644 123.379 74.8656 123.71 74.7774C127.154 74.469 129.766 75.6482 130.957 78.9695C132.138 82.2848 130.81 85.0308 127.925 87.6422C131.263 88.9155 134.147 90.4761 134.174 94.4921C134.196 97.8985 132.333 100.089 129.389 101.538C129.009 101.64 128.635 101.731 128.265 101.838C126.858 101.62 125.1 101.854 124.119 101.086C122 99.4261 121.501 100.293 120.262 102.342C119.063 104.33 118.364 105.206 120.853 106.339C121.991 106.856 122.565 108.518 123.386 109.651C123.466 110.031 123.545 110.412 123.635 110.798C123.67 114.227 122.391 116.96 119.046 118.324C115.723 119.674 113.063 118.595 110.669 115.699C109.235 119.363 107.265 122.298 103.19 122.426C100.059 122.52 98.1087 120.789 96.8728 118.09C96.7726 117.611 96.6825 117.137 96.5758 116.668C96.542 114.251 97.4619 112.138 99.0338 110.304C96.0812 107.994 93.3741 106.483 90.9378 111.113C90.6443 111.671 89.725 111.908 89.0886 112.287C88.7183 112.395 88.3712 112.487 88.024 112.58ZM109.657 111.649C108.554 109.378 114.673 108.05 110.609 105.556C108.537 104.285 107.583 104.732 106.341 106.765C103.723 111.025 109.665 109.099 109.657 111.649ZM87.988 98.5822C90.1177 97.6646 91.8114 103.933 94.3584 98.2868C96.3783 93.7941 91.8297 95.5407 91.1075 93.6301C90.5982 95.7036 89.0962 96.7852 87.988 98.5822ZM123.96 89.0496C118.807 86.6464 118.913 86.7401 118.041 87.8282C115.028 91.6174 118.829 92.0165 120.709 94.037C121.213 91.7293 122.71 90.5005 123.96 89.0496ZM102.282 75.6013C101.401 77.6081 100.583 79.2925 99.2018 80.9093C101.309 80.469 102.055 85.166 105.068 81.3333C108.789 76.5872 102.184 78.1408 102.282 75.6013ZM104.233 92.2473C103.639 93.3745 101.892 94.4519 104.275 95.2906C105.482 95.7191 106.364 97.3512 107.636 94.9172C108.503 93.263 108.809 92.5967 107.008 91.6635C105.657 90.9595 104.812 90.2598 104.233 92.2473Z"
      fill="#F54748"
    />
    <path
      d="M114.542 71.0327C114.476 70.7186 114.42 70.4105 114.355 70.0964C114.482 69.8269 114.688 69.5623 114.735 69.2879C115.278 65.7046 116.912 62.9996 120.725 62.4535C123.827 62.01 126.142 63.3995 127.155 66.3235C128.402 69.9093 126.692 72.5823 123.721 74.6929C123.493 74.8582 123.337 75.1531 123.15 75.3862C122.819 75.4745 122.482 75.5732 122.151 75.6614C118.929 75.1945 116.403 73.6341 114.542 71.0327Z"
      fill="#F54748"
    />
    <path
      d="M124.224 111.382C124.144 111.002 124.065 110.621 123.975 110.235C124.534 106.979 126.175 104.395 128.853 102.424C129.233 102.322 129.606 102.231 129.977 102.124C130.95 102.353 131.942 102.507 132.876 102.842C135.519 103.795 137.165 105.616 137.148 108.623C137.129 111.368 135.814 113.473 133.346 114.734C130.641 116.11 128.233 115.487 126.178 113.592C125.45 112.948 124.87 112.134 124.224 111.382Z"
      fill="#F54748"
    />
    <path
      d="M97.1549 116.095C97.2551 116.575 97.3453 117.048 97.4521 117.517C97.2328 118.221 97.007 118.936 96.7777 119.634C95.8159 122.631 93.9712 124.703 90.7721 124.972C87.8379 125.214 85.6787 123.861 84.6378 121.137C83.512 118.173 84.6137 115.636 86.9516 113.503C87.5007 112.999 88.0698 112.506 88.619 112.002C88.9661 111.909 89.3198 111.806 89.667 111.714C92.8056 112.116 95.2647 113.65 97.1549 116.095Z"
      fill="#F54748"
    />
    <path
      d="M82.852 84.9978C82.5379 85.0817 82.2303 85.155 81.9162 85.2388C78.3267 84.4336 74.7926 83.5177 74.676 78.8276C74.6028 76.0981 75.9 73.9543 78.3847 72.6893C82.6315 70.5439 85.1491 73.1099 87.559 75.8704C87.6524 76.3168 87.7457 76.7631 87.8455 77.199C87.1674 80.4256 85.443 82.9888 82.852 84.9978Z"
      fill="#F54748"
    />
    <path
      d="M125.752 128.622C124.014 131.538 119.914 132.632 117.198 130.913C114.622 129.279 113.81 125.437 115.473 122.664C117.218 119.737 121.301 118.648 124.027 120.373C126.586 122.011 127.398 125.853 125.752 128.622Z"
      fill="#F54748"
    />
    <path
      d="M67.4683 100.269C64.7302 98.6523 63.9095 94.5602 65.7713 91.7771C67.5446 89.1136 71.3539 88.1321 73.9621 89.6703C76.7002 91.2873 77.5208 95.3794 75.6591 98.1625C73.8958 100.832 70.0764 101.807 67.4683 100.269Z"
      fill="#F54748"
    />
    <path
      d="M79.0892 111.265C77.4207 114.18 73.3509 115.335 70.6124 113.675C68.0238 112.105 67.1657 108.293 68.7492 105.515C70.4176 102.6 74.4874 101.444 77.2259 103.105C79.8245 104.681 80.6891 108.482 79.0892 111.265Z"
      fill="#F54748"
    />
    <path
      d="M137.46 97.5202C134.813 95.6696 134.266 91.5132 136.318 88.8453C138.301 86.2656 142.178 85.5278 144.642 87.2528C147.289 89.1033 147.829 93.2703 145.784 95.9277C143.811 98.5134 139.934 99.2512 137.46 97.5202Z"
      fill="#F54748"
    />
    <path
      d="M94.2877 56.3325C96.9115 57.7792 97.9149 61.5344 96.4249 64.3841C94.8861 67.3341 90.8576 68.6445 88.0473 67.0992C85.2669 65.5721 84.3406 61.517 86.1354 58.6646C87.8387 55.9587 91.6338 54.8676 94.2877 56.3325Z"
      fill="#F54748"
    />
    <path
      d="M142.902 82.0608C141.094 84.9342 136.983 85.935 134.339 84.1444C131.809 82.4371 131.094 78.5963 132.81 75.8695C134.618 72.9961 138.729 71.9953 141.372 73.7859C143.902 75.4932 144.611 79.3444 142.902 82.0608Z"
      fill="#F54748"
    />
    <path
      d="M107.912 53.2531C110.634 54.9181 111.395 59.0174 109.494 61.7763C107.674 64.4261 103.844 65.3519 101.278 63.7674C98.5564 62.1024 97.7953 58.0031 99.6871 55.2381C101.51 52.6048 105.347 51.6686 107.912 53.2531Z"
      fill="#F54748"
    />
    <path
      d="M112.281 131.851C110.523 134.755 106.433 135.812 103.74 134.078C101.177 132.423 100.402 128.589 102.079 125.838C103.837 122.934 107.917 121.872 110.613 123.622C113.176 125.277 113.948 129.094 112.281 131.851Z"
      fill="#F54748"
    />
    <path
      d="M72.6264 118.672C74.9063 115.925 77.5259 115.305 80.385 117.082C83.1141 118.78 83.5932 122.449 81.4386 125.127C79.1791 127.929 76.4319 128.357 73.7139 126.42C70.9426 124.436 70.8624 121.673 72.6264 118.672Z"
      fill="#F54748"
    />
    <path
      d="M130.938 127.381C128.243 125.387 127.548 122.815 129.304 119.694C130.979 116.725 134.655 115.779 137.283 117.661C140.023 119.626 140.558 122.389 138.615 125.368C136.669 128.374 133.943 128.857 130.938 127.381Z"
      fill="#F54748"
    />
    <path
      d="M72.2152 84.3167C70.1252 87.1784 67.5251 88.1426 64.5734 86.3817C61.6516 84.6389 61.0247 81.8911 62.894 78.809C64.7668 75.7434 67.5211 74.9737 70.4625 76.685C73.4273 78.425 73.8119 81.1415 72.2152 84.3167Z"
      fill="#F54748"
    />
    <path
      d="M98.5113 134.858C96.4509 137.694 93.8312 138.69 90.8737 137.027C87.9526 135.371 87.2796 132.653 88.9194 129.475C90.4841 126.439 94.1475 125.383 96.8408 127.161C99.6676 129.034 100.098 131.677 98.5113 134.858Z"
      fill="#F54748"
    />
    <path
      d="M141.093 110.715C138.421 108.662 137.783 106.066 139.589 102.975C141.313 100.037 145.01 99.1468 147.598 101.091C150.3 103.119 150.774 105.89 148.798 108.834C146.786 111.814 144.052 112.22 141.093 110.715Z"
      fill="#F54748"
    />
    <path
      d="M80.9836 60.1565C83.6128 62.256 84.2288 64.9101 82.2166 67.8902C80.1978 70.8808 77.3895 71.4729 74.5668 69.617C71.7142 67.7429 71.2923 64.9323 73.2781 61.9506C75.29 58.9269 78.0174 58.5745 80.9836 60.1565Z"
      fill="#F54748"
    />
    <path
      d="M122.792 58.0526C120.488 61.0587 117.844 61.9387 114.948 60.1105C112.062 58.2883 111.521 55.4914 113.47 52.4578C115.419 49.4242 118.217 48.7388 121.113 50.5234C124.058 52.3384 124.268 55.0929 122.792 58.0526Z"
      fill="#F54748"
    />
    <path
      d="M139.312 68.4422C137.178 71.2631 134.6 72.0819 131.636 70.429C128.802 68.8548 128.121 65.2225 130.162 62.4611C132.275 59.5846 135.014 58.9498 137.83 60.7731C140.677 62.6145 140.959 65.3409 139.312 68.4422Z"
      fill="#F54748"
    />
    <path
      d="M57.8226 116.146C55.4641 114.297 54.6413 111.864 56.2547 109.148C57.8717 106.448 60.5556 105.679 63.133 107.155C65.7203 108.638 66.3267 111.329 64.7263 114.025C63.1328 116.753 60.5554 117.197 57.8226 116.146Z"
      fill="#F54748"
    />
    <path
      d="M77.5852 139.785C75.2731 137.95 74.4403 135.511 76.0603 132.784C77.6838 130.074 80.3942 129.307 82.9781 130.773C85.5755 132.261 86.1852 134.969 84.5883 137.681C82.9752 140.441 80.3913 140.895 77.5852 139.785Z"
      fill="#F54748"
    />
    <path
      d="M150.557 114.947C152.583 116.71 153.243 119.074 151.716 121.828C150.326 124.32 146.466 125.227 144.41 123.533C142.144 121.668 141.699 119.161 143.336 116.473C144.721 114.166 148.227 113.448 150.557 114.947Z"
      fill="#F54748"
    />
    <path
      d="M68.6088 70.6617C66.4792 73.1675 64.0073 74.0365 61.5041 72.4175C59.0208 70.8107 58.5004 68.1129 60.2213 65.4892C61.9357 62.876 64.6347 62.217 67.141 63.8089C69.6673 65.4129 69.809 68.011 68.6088 70.6617Z"
      fill="#F54748"
    />
    <path
      d="M134.182 47.6019C136.491 49.4203 137.314 51.8533 135.68 54.5578C134.063 57.2578 131.369 58.0201 128.798 56.5334C126.217 55.0406 125.621 52.3553 127.221 49.6597C128.835 46.9431 131.402 46.4937 134.182 47.6019Z"
      fill="#F54748"
    />
    <path
      d="M105.691 47.5968C103.783 50.0348 101.355 50.988 98.767 49.5053C96.1954 48.0181 95.5858 45.3529 97.1801 42.667C98.7811 39.9706 101.459 39.2124 104.028 40.683C106.622 42.1553 106.939 44.7153 105.691 47.5968Z"
      fill="#F54748"
    />
    <path
      d="M114.623 144.958C112.549 147.353 110.058 148.254 107.534 146.623C105.031 145.004 104.504 142.273 106.238 139.628C107.975 137 110.704 136.316 113.224 137.93C115.76 139.54 115.975 142.154 114.623 144.958Z"
      fill="#F54748"
    />
    <path
      d="M154.022 71.2298C156.334 73.0648 157.167 75.5038 155.547 78.2308C153.924 80.9413 151.213 81.7081 148.626 80.2258C146.028 78.7374 145.425 76.019 147.032 73.3129C148.632 70.5738 151.216 70.1199 154.022 71.2298Z"
      fill="#F54748"
    />
    <path
      d="M60.0427 93.6865C62.4093 95.6988 63.1329 98.1583 61.3961 100.786C59.6823 103.398 56.9876 104.073 54.4822 102.482C51.9933 100.886 51.4831 98.1951 53.1834 95.5602C54.9133 92.8999 57.4787 92.6081 60.0427 93.6865Z"
      fill="#F54748"
    />
    <path
      d="M151.738 93.7238C149.426 91.8888 148.6 89.4393 150.23 86.7183C151.853 84.0079 154.564 83.2411 157.161 84.7295C159.759 86.2178 160.352 88.9302 158.755 91.6423C157.122 94.3902 154.528 94.838 151.738 93.7238Z"
      fill="#F54748"
    />
    <path
      d="M92.3053 50.735C90.348 53.2298 87.9135 54.1935 85.3318 52.7003C82.7602 51.2131 82.1571 48.5374 83.7515 45.8515C85.3524 43.1551 88.0241 42.4074 90.5988 43.8675C93.2135 45.3519 93.491 47.9312 92.3053 50.735Z"
      fill="#F54748"
    />
    <path
      d="M128.059 141.779C126.021 144.138 123.638 144.931 121.01 143.511C118.623 142.237 117.953 138.365 119.747 136.176C121.725 133.78 124.318 133.071 126.772 134.747C129.209 136.427 129.417 139.008 128.059 141.779Z"
      fill="#F54748"
    />
    <path
      d="M160.358 98.6006C162.676 100.382 163.14 102.64 161.392 105.175C159.615 107.734 157.222 108.102 154.862 106.454C152.645 104.908 152.31 102.641 153.857 100.23C155.528 97.6204 157.814 97.246 160.358 98.6006Z"
      fill="#F54748"
    />
    <path
      d="M134.759 140.056C132.318 138.229 131.742 136.018 133.397 133.457C135.052 130.895 137.383 130.316 139.821 131.838C142.27 133.367 142.688 135.698 141.08 138.274C139.422 140.906 137.135 141.194 134.759 140.056Z"
      fill="#F54748"
    />
    <path
      d="M51.4091 88.6989C49.1438 86.9211 48.6938 84.6853 50.4484 82.184C52.2226 79.6514 54.5856 79.3089 56.9193 80.955C59.1197 82.5057 59.414 84.7482 57.8671 87.1155C56.1863 89.7192 53.9259 90.0518 51.4091 88.6989Z"
      fill="#F54748"
    />
    <path
      d="M150.613 58.2696C152.948 59.9592 153.54 62.1659 151.856 64.7531C150.155 67.3447 147.819 67.8195 145.397 66.2494C143.134 64.7764 142.714 62.5586 144.184 60.1158C145.785 57.4636 148.031 56.9778 150.613 58.2696Z"
      fill="#F54748"
    />
    <path
      d="M72.2673 55.6969C69.7671 53.9643 69.0957 51.7962 70.73 49.1787C72.3678 46.5778 74.6659 46.0083 77.1246 47.5425C79.41 48.9571 79.8827 51.1346 78.4791 53.6033C76.9482 56.2979 74.7154 56.7627 72.2673 55.6969Z"
      fill="#F54748"
    />
    <path
      d="M100.88 147.85C98.864 150.439 96.592 151.01 94.2047 149.36C91.7774 147.686 91.5676 145.264 93.336 142.785C95.0029 140.446 97.263 140.026 99.5523 141.458C102.068 143.056 102.184 145.364 100.88 147.85Z"
      fill="#F54748"
    />
    <path
      d="M61.2807 129.18C58.7963 127.356 58.2437 125.13 59.9579 122.561C61.6787 119.981 64.0209 119.54 66.4303 121.131C68.6799 122.625 69.0569 124.845 67.5768 127.282C65.9498 129.976 63.6795 130.302 61.2807 129.18Z"
      fill="#F54748"
    />
    <path
      d="M118.592 44.3974C116.71 46.7934 114.474 47.3724 112.097 45.7287C109.689 44.0669 109.48 41.6877 111.235 39.2294C112.889 36.9117 115.123 36.4904 117.379 37.9307C119.862 39.4939 120.067 41.7695 118.592 44.3974Z"
      fill="#F54748"
    />
    <path
      d="M148.323 136.348C146.386 134.552 145.814 132.445 147.403 130.32C148.942 128.251 151.231 127.763 153.246 129.302C155.05 130.67 155.403 132.818 154.046 134.838C152.56 137.041 150.421 137.245 148.323 136.348Z"
      fill="#F54748"
    />
    <path
      d="M48.6871 74.8864C46.7558 73.4122 46.1784 71.4023 47.6339 69.1815C48.9552 67.1536 51.0481 66.604 53.0233 67.7873C55.1684 69.0736 55.6146 71.2494 54.1691 73.4762C52.8444 75.4876 50.8527 75.8532 48.6871 74.8864Z"
      fill="#F54748"
    />
    <path
      d="M147.018 45.2562C148.822 46.5375 149.567 48.3893 148.462 50.5774C147.244 52.9706 145.06 53.7103 142.853 52.5453C140.626 51.3681 140.133 49.135 141.508 46.8659C142.773 44.7747 144.78 44.3611 147.018 45.2562Z"
      fill="#F54748"
    />
    <path
      d="M164.47 118.05C162.917 120.096 160.875 120.937 158.71 119.682C156.555 118.433 156.101 116.18 157.464 113.931C158.726 111.867 160.868 111.26 162.883 112.294C165.113 113.444 165.446 115.581 164.47 118.05Z"
      fill="#F54748"
    />
    <path
      d="M63.2432 51.075C65.0335 52.3338 65.7716 54.1526 64.6736 56.3303C63.468 58.7025 61.3104 59.4439 59.1134 58.2849C56.9129 57.1094 56.4037 54.9242 57.7792 52.6549C59.0471 50.5802 61.0184 50.159 63.2432 51.075Z"
      fill="#F54748"
    />
    <path
      d="M70.4262 140.481C68.8758 142.5 66.8377 143.315 64.7121 142.04C62.5964 140.772 62.1497 138.552 63.536 136.332C64.8111 134.289 66.9341 133.714 68.9252 134.763C71.1227 135.922 71.4591 138.032 70.4262 140.481Z"
      fill="#F54748"
    />
    <path
      d="M131.72 40.6998C130.315 42.6196 128.413 43.4151 126.345 42.3782C124.082 41.2366 123.483 39.0399 124.812 36.7565C126.138 34.4565 128.38 33.867 130.533 35.1866C132.489 36.4016 132.755 38.4252 131.72 40.6998Z"
      fill="#F54748"
    />
    <path
      d="M81.2617 152.316C79.3597 150.773 78.7225 148.726 80.1648 146.527C81.5941 144.348 83.8429 143.835 85.9157 145.193C87.7985 146.436 88.2344 148.562 87.0061 150.617C85.6572 152.888 83.5564 153.274 81.2617 152.316Z"
      fill="#F54748"
    />
    <path
      d="M124.937 155.729C123.033 154.343 122.619 152.534 124.056 150.432C125.358 148.522 127.168 148.118 129.013 149.266C131.069 150.541 131.364 152.452 129.95 154.54C128.654 156.482 126.894 156.742 124.937 155.729Z"
      fill="#F54748"
    />
    <path
      d="M166.438 69.1346C168.545 70.5708 169.083 72.3119 167.71 74.467C166.474 76.4023 164.712 76.9073 162.827 75.8221C160.756 74.6383 160.352 72.7913 161.676 70.6494C162.922 68.6766 164.656 68.4147 166.438 69.1346Z"
      fill="#F54748"
    />
    <path
      d="M115.658 152.465C117.432 153.772 117.924 155.456 116.718 157.453C115.408 159.618 113.537 160.143 111.491 158.874C109.636 157.72 109.256 155.945 110.435 153.946C111.748 151.755 113.581 151.379 115.658 152.465Z"
      fill="#F54748"
    />
    <path
      d="M169.672 82.5502C171.779 83.9864 172.321 85.744 170.941 87.9097C169.699 89.8554 167.93 90.3709 166.025 89.2735C163.944 88.0837 163.527 86.2142 164.874 84.0573C166.109 82.0785 167.856 81.7956 169.672 82.5502Z"
      fill="#F54748"
    />
    <path
      d="M101.205 33.5804C99.8216 35.3982 98.1263 35.9727 96.2537 34.8228C94.1912 33.5577 93.9093 31.6255 95.3601 29.5889C96.6862 27.7078 98.5165 27.4028 100.323 28.6139C102.15 29.8371 102.298 31.5869 101.205 33.5804Z"
      fill="#F54748"
    />
    <path
      d="M45.991 98.2227C47.709 99.5531 48.1511 101.25 46.879 103.221C45.4727 105.385 43.5406 105.744 41.6 104.351C39.8062 103.075 39.6444 101.216 40.9668 99.3188C42.3288 97.4022 44.0799 97.1793 45.991 98.2227Z"
      fill="#F54748"
    />
    <path
      d="M164.467 60.785C163.219 62.4535 161.581 63.1349 159.843 62.2109C157.908 61.1822 157.484 59.2792 158.727 57.333C159.845 55.5858 161.648 55.1485 163.35 56.1518C165.066 57.1778 165.25 58.8918 164.467 60.785Z"
      fill="#F54748"
    />
    <path
      d="M114.489 30.2105C113.177 31.7826 111.535 32.4475 109.859 31.4458C108.014 30.341 107.629 28.4186 108.942 26.5583C110.108 24.9119 111.921 24.4806 113.564 25.5783C115.198 26.6699 115.335 28.3701 114.489 30.2105Z"
      fill="#F54748"
    />
    <path
      d="M49.0709 111.575C50.8447 112.838 51.3795 114.519 50.1674 116.527C48.8441 118.712 46.9362 119.186 44.9298 117.854C43.0868 116.636 42.8357 114.809 44.0982 112.875C45.3803 110.91 47.1141 110.605 49.0709 111.575Z"
      fill="#F54748"
    />
    <path
      d="M138.494 152.362C136.868 151.016 136.35 149.287 137.679 147.379C138.86 145.685 140.642 145.236 142.308 146.275C144.147 147.433 144.505 149.31 143.202 151.219C142.018 152.94 140.313 153.177 138.494 152.362Z"
      fill="#F54748"
    />
    <path
      d="M42.3422 84.7873C44.0001 86.0813 44.5905 87.6949 43.5754 89.4752C42.4526 91.45 40.5387 91.9781 38.7262 90.8213C37.0971 89.7902 36.78 87.9814 37.8617 86.227C38.9694 84.4308 40.6845 84.2873 42.3422 84.7873Z"
      fill="#F54748"
    />
    <path
      d="M82.8746 38.1495C80.9898 36.6891 80.5082 35.0114 81.7571 33.0552C83.1303 30.9001 85.0489 30.5191 86.9925 31.8853C88.7727 33.138 88.9642 34.9716 87.6683 36.8705C86.3463 38.8113 84.5911 38.9305 82.8746 38.1495Z"
      fill="#F54748"
    />
    <path
      d="M169.025 102.359C167.539 100.923 167.06 99.1751 168.485 97.355C169.724 95.768 171.533 95.3639 173.123 96.5015C174.851 97.7508 175.142 99.645 173.749 101.456C172.501 103.081 170.79 103.284 169.025 102.359Z"
      fill="#F54748"
    />
    <path
      d="M53.097 130.104C51.7248 131.64 50.0859 132.234 48.3997 131.183C46.7235 130.138 46.3236 128.35 47.4122 126.585C48.6249 124.621 50.5433 124.152 52.3306 125.395C53.931 126.495 54.0456 128.254 53.097 130.104Z"
      fill="#F54748"
    />
    <path
      d="M101.888 155.69C103.653 157.164 104.201 158.868 102.916 160.773C101.767 162.458 99.9885 162.923 98.3263 161.901C96.4943 160.776 96.1403 158.916 97.3895 157.003C98.5311 155.285 100.253 155.175 101.888 155.69Z"
      fill="#F54748"
    />
    <path
      d="M74.1496 39.8715C72.7542 41.4221 71.0922 42.0314 69.4352 40.9111C67.8016 39.8195 67.4644 37.998 68.6295 36.2645C69.7981 34.5475 71.6073 34.0997 73.2674 35.193C74.9109 36.2906 75.0386 38.0284 74.1496 39.8715Z"
      fill="#F54748"
    />
    <path
      d="M166.689 130.95C165.44 132.575 163.969 133.055 162.423 132.088C160.877 131.122 160.555 129.541 161.595 127.919C162.635 126.298 164.209 125.895 165.762 126.851C167.325 127.813 167.47 129.345 166.689 130.95Z"
      fill="#F54748"
    />
    <path
      d="M89.1397 163.152C88.1055 164.676 86.9035 165.189 85.5657 164.551C84.0349 163.824 83.5824 162.453 84.5 160.873C85.4112 159.303 86.8169 158.972 88.2631 159.878C89.5593 160.692 89.5736 161.971 89.1397 163.152Z"
      fill="#F54748"
    />
    <path
      d="M67.58 150.41C68.9541 148.717 70.4361 148.374 71.9104 149.456C73.4147 150.556 73.4882 152.159 72.3213 153.675C71.2855 155.025 69.8428 155.305 68.4496 154.403C66.8764 153.391 66.8272 151.903 67.58 150.41Z"
      fill="#F54748"
    />
    <path
      d="M55.6931 142.973C54.6308 144.321 53.3387 144.78 51.9285 143.838C50.7183 143.017 50.4617 141.707 51.2791 140.398C52.2142 138.9 53.6165 138.552 55.0132 139.471C56.2466 140.277 56.3471 141.551 55.6931 142.973Z"
      fill="#F54748"
    />
    <path
      d="M127.217 26.601C126.23 27.8071 125.004 28.2911 123.728 27.5318C122.272 26.6634 122.001 25.1996 123.063 23.7643C123.967 22.5368 125.327 22.2351 126.564 23.1008C127.778 23.9378 127.885 25.201 127.217 26.601Z"
      fill="#F54748"
    />
    <path
      d="M144.108 36.9717C142.757 38.6936 141.268 38.9164 139.796 37.8078C138.469 36.8006 138.337 35.3346 139.355 33.9022C140.534 32.2349 142.08 32.0754 143.552 33.184C144.903 34.1764 144.895 35.601 144.108 36.9717Z"
      fill="#F54748"
    />
    <path
      d="M160.593 46.9815C159.313 48.4577 157.961 48.836 156.639 47.8182C155.515 46.9486 155.284 45.5961 156.198 44.3311C157.223 42.888 158.643 42.6227 159.977 43.6196C161.145 44.4864 161.113 45.7954 160.593 46.9815Z"
      fill="#F54748"
    />
    <path
      d="M60.098 42.5762C59.1308 43.7943 57.8988 44.2889 56.6262 43.5461C55.1573 42.6987 54.8796 41.2454 55.9177 39.7815C56.8084 38.5314 58.1615 38.2403 59.4083 39.0684C60.6419 39.9175 60.7489 41.1807 60.098 42.5762Z"
      fill="#F54748"
    />
    <path
      d="M176.714 113.96C175.568 115.574 174.299 116.018 172.84 115.133C171.57 114.363 171.241 113.124 171.959 111.755C172.761 110.205 174.079 109.662 175.61 110.431C177.144 111.218 177.269 112.563 176.714 113.96Z"
      fill="#F54748"
    />
    <path
      d="M50.0804 59.3551C48.98 60.8967 47.5685 61.3257 46.0085 60.2931C44.6219 59.3801 44.3681 57.9991 45.2865 56.5061C46.3292 54.8141 47.8011 54.465 49.3676 55.4871C50.7708 56.3957 50.9316 57.7491 50.0804 59.3551Z"
      fill="#F54748"
    />
    <path
      d="M39.6033 75.8999C38.6026 77.0833 37.3671 77.5613 36.1107 76.7706C34.6745 75.8708 34.4199 74.4027 35.5014 72.9795C36.419 71.7746 37.7987 71.4851 39.0127 72.3656C40.2068 73.234 40.3172 74.5137 39.6033 75.8999Z"
      fill="#F54748"
    />
    <path
      d="M156.132 147.402C155.12 148.824 153.844 149.278 152.385 148.393C151.116 147.624 150.787 146.385 151.504 145.015C152.306 143.466 153.631 142.912 155.155 143.692C156.653 144.471 156.903 145.791 156.132 147.402Z"
      fill="#F54748"
    />
  </g>
  <defs>
    <filter
      id="filter0_f_111_408"
      x="30.834"
      y="18.6064"
      width="150.182"
      height="150.213"
      filterUnits="userSpaceOnUse"
      color-interpolation-filters="sRGB"
    >
      <feFlood flood-opacity="0" result="BackgroundImageFix" />
      <feBlend
        mode="normal"
        in="SourceGraphic"
        in2="BackgroundImageFix"
        result="shape"
      />
      <feGaussianBlur
        stdDeviation="2"
        result="effect1_foregroundBlur_111_408"
      />
    </filter>
  </defs>
</svg>
