<svg
  width="46"
  height="46"
  viewBox="0 0 46 46"
  fill="none"
  xmlns="http://www.w3.org/2000/svg"
>
  <path
    d="M40.9683 18.8313C40.9683 18.8313 38.812 20.8438 35.1464 23.2156C34.1402 17.3937 31.337 10.2063 25.8745 1.4375C25.8745 1.4375 24.0777 10.8531 18.112 19.6938C15.5245 15.6687 14.3745 12.5062 14.3745 12.5062C-4.31297 31.2656 11.212 44.5625 20.987 44.5625C33.4933 44.5625 44.4902 38.525 40.9683 18.8313Z"
    fill="#FF9D33"
    class="flame-main"
  >
    <animate
      attributeName="d"
      dur="1.5s"
      repeatCount="indefinite"
      values="M40.9683 18.8313C40.9683 18.8313 38.812 20.8438 35.1464 23.2156C34.1402 17.3937 31.337 10.2063 25.8745 1.4375C25.8745 1.4375 24.0777 10.8531 18.112 19.6938C15.5245 15.6687 14.3745 12.5062 14.3745 12.5062C-4.31297 31.2656 11.212 44.5625 20.987 44.5625C33.4933 44.5625 44.4902 38.525 40.9683 18.8313Z;
             M40.9683 19.8313C40.9683 19.8313 39.812 21.8438 36.1464 24.2156C35.1402 18.3937 31.337 11.2063 25.8745 2.4375C25.8745 2.4375 24.0777 11.8531 18.112 20.6938C15.5245 16.6687 14.3745 13.5062 14.3745 13.5062C-4.31297 32.2656 11.212 45.5625 20.987 45.5625C33.4933 45.5625 44.4902 39.525 40.9683 19.8313Z;
             M40.9683 18.8313C40.9683 18.8313 38.812 20.8438 35.1464 23.2156C34.1402 17.3937 31.337 10.2063 25.8745 1.4375C25.8745 1.4375 24.0777 10.8531 18.112 19.6938C15.5245 15.6687 14.3745 12.5062 14.3745 12.5062C-4.31297 31.2656 11.212 44.5625 20.987 44.5625C33.4933 44.5625 44.4902 38.525 40.9683 18.8313Z"
    />
  </path>

  <path
    d="M33.5654 35.5064C34.6436 33.1346 35.4342 30.0439 35.5779 26.1627C35.5779 26.1627 34.0686 27.4564 31.4811 29.1096C30.7623 25.2283 28.8217 20.4846 25.0123 14.5908C25.0123 14.5908 23.7904 20.8439 19.6217 26.8096C17.8248 24.1502 17.0342 21.9939 17.0342 21.9939C13.9436 26.8814 12.7217 30.7627 12.6498 33.8533C10.9248 33.2064 9.84668 32.7033 9.84668 32.7033C12.7936 41.4721 18.9029 43.4127 21.6342 43.4127C26.5217 43.4127 31.4811 41.9752 36.3686 35.0033C36.3686 34.9314 35.2904 35.2189 33.5654 35.5064Z"
    fill="#FFCE31"
    class="flame-middle"
  >
    <animate
      attributeName="d"
      dur="2s"
      repeatCount="indefinite"
      values="M33.5654 35.5064C34.6436 33.1346 35.4342 30.0439 35.5779 26.1627C35.5779 26.1627 34.0686 27.4564 31.4811 29.1096C30.7623 25.2283 28.8217 20.4846 25.0123 14.5908C25.0123 14.5908 23.7904 20.8439 19.6217 26.8096C17.8248 24.1502 17.0342 21.9939 17.0342 21.9939C13.9436 26.8814 12.7217 30.7627 12.6498 33.8533C10.9248 33.2064 9.84668 32.7033 9.84668 32.7033C12.7936 41.4721 18.9029 43.4127 21.6342 43.4127C26.5217 43.4127 31.4811 41.9752 36.3686 35.0033C36.3686 34.9314 35.2904 35.2189 33.5654 35.5064Z;
             M34.5654 36.5064C35.6436 34.1346 36.4342 31.0439 36.5779 27.1627C36.5779 27.1627 35.0686 28.4564 32.4811 30.1096C31.7623 26.2283 29.8217 21.4846 26.0123 15.5908C26.0123 15.5908 24.7904 21.8439 20.6217 27.8096C18.8248 25.1502 18.0342 22.9939 18.0342 22.9939C14.9436 27.8814 13.7217 31.7627 13.6498 34.8533C11.9248 34.2064 10.84668 33.7033 10.84668 33.7033C13.7936 42.4721 19.9029 44.4127 22.6342 44.4127C27.5217 44.4127 32.4811 42.9752 37.3686 36.0033C37.3686 35.9314 36.2904 36.2189 34.5654 36.5064Z;
             M33.5654 35.5064C34.6436 33.1346 35.4342 30.0439 35.5779 26.1627C35.5779 26.1627 34.0686 27.4564 31.4811 29.1096C30.7623 25.2283 28.8217 20.4846 25.0123 14.5908C25.0123 14.5908 23.7904 20.8439 19.6217 26.8096C17.8248 24.1502 17.0342 21.9939 17.0342 21.9939C13.9436 26.8814 12.7217 30.7627 12.6498 33.8533C10.9248 33.2064 9.84668 32.7033 9.84668 32.7033C12.7936 41.4721 18.9029 43.4127 21.6342 43.4127C26.5217 43.4127 31.4811 41.9752 36.3686 35.0033C36.3686 34.9314 35.2904 35.2189 33.5654 35.5064Z"
    />
  </path>

  <path
    d="M15.7409 31.5531C15.7409 31.5531 17.7534 34.2844 19.2628 33.6375C19.2628 33.6375 22.1378 29.1094 26.3066 26.5938C26.3066 26.5938 25.4441 33.4937 26.4503 34.7156C27.7441 36.3687 31.2659 32.9187 31.2659 32.9187C31.2659 37.0156 26.8097 42.1187 22.7847 42.1187C18.9034 42.1187 13.2972 37.6625 15.7409 31.5531Z"
    fill="#FFDF85"
    class="flame-inner"
  >
    <animate
      attributeName="d"
      dur="1.8s"
      repeatCount="indefinite"
      values="M15.7409 31.5531C15.7409 31.5531 17.7534 34.2844 19.2628 33.6375C19.2628 33.6375 22.1378 29.1094 26.3066 26.5938C26.3066 26.5938 25.4441 33.4937 26.4503 34.7156C27.7441 36.3687 31.2659 32.9187 31.2659 32.9187C31.2659 37.0156 26.8097 42.1187 22.7847 42.1187C18.9034 42.1187 13.2972 37.6625 15.7409 31.5531Z;
             M16.7409 32.5531C16.7409 32.5531 18.7534 35.2844 20.2628 34.6375C20.2628 34.6375 23.1378 30.1094 27.3066 27.5938C27.3066 27.5938 26.4441 34.4937 27.4503 35.7156C28.7441 37.3687 32.2659 33.9187 32.2659 33.9187C32.2659 38.0156 27.8097 43.1187 23.7847 43.1187C19.9034 43.1187 14.2972 38.6625 16.7409 32.5531Z;
             M15.7409 31.5531C15.7409 31.5531 17.7534 34.2844 19.2628 33.6375C19.2628 33.6375 22.1378 29.1094 26.3066 26.5938C26.3066 26.5938 25.4441 33.4937 26.4503 34.7156C27.7441 36.3687 31.2659 32.9187 31.2659 32.9187C31.2659 37.0156 26.8097 42.1187 22.7847 42.1187C18.9034 42.1187 13.2972 37.6625 15.7409 31.5531Z"
    />
  </path>

  <path
    d="M35.7942 13.009C37.3036 10.8527 38.3098 8.55273 38.3098 8.55273C40.8255 12.7215 39.3161 15.2371 38.238 16.0277C36.7286 17.1777 34.0692 15.5246 35.7942 13.009Z"
    fill="#FF9D33"
  />
  <path
    d="M8.33764 12.2904C6.82826 9.77481 6.68451 6.6123 6.68451 6.6123C3.09076 12.0029 4.45639 15.0217 5.67826 15.8842C7.25951 17.1061 9.99076 15.2373 8.33764 12.2904Z"
    fill="#FF9D33"
  />
  <path
    d="M16.675 6.68438C16.8906 4.95938 16.1719 3.23438 16.1719 3.23438C19.55 5.4625 19.55 7.33125 19.1188 8.12188C18.4719 9.05625 16.4594 8.625 16.675 6.68438Z"
    fill="#FF9D33"
  />
</svg>
