<svg
  width="52"
  height="40"
  viewBox="0 0 52 40"
  fill="none"
  xmlns="http://www.w3.org/2000/svg"
>
  <path
    d="M24.8955 39.9795C14.195 39.9795 5.52051 31.305 5.52051 20.6045C5.52051 9.90398 14.195 1.22949 24.8955 1.22949C35.596 1.22949 44.2705 9.90398 44.2705 20.6045C44.2705 31.305 35.596 39.9795 24.8955 39.9795Z"
    fill="#FFDA6A"
  >
    <animate
      attributeName="d"
      dur="3s"
      repeatCount="indefinite"
      values="M24.8955 39.9795C14.195 39.9795 5.52051 31.305 5.52051 20.6045C5.52051 9.90398 14.195 1.22949 24.8955 1.22949C35.596 1.22949 44.2705 9.90398 44.2705 20.6045C44.2705 31.305 35.596 39.9795 24.8955 39.9795Z;
              M24.8955 41.9795C14.195 41.9795 3.52051 31.305 3.52051 20.6045C3.52051 9.90398 14.195 -0.77051 24.8955 -0.77051C35.596 -0.77051 46.2705 9.90398 46.2705 20.6045C46.2705 31.305 35.596 41.9795 24.8955 41.9795Z;
              M24.8955 39.9795C14.195 39.9795 5.52051 31.305 5.52051 20.6045C5.52051 9.90398 14.195 1.22949 24.8955 1.22949C35.596 1.22949 44.2705 9.90398 44.2705 20.6045C44.2705 31.305 35.596 39.9795 24.8955 39.9795Z"
    />
  </path>
  <g filter="url(#filter0_f_33_318)">
    <path
      d="M36.0907 24.4797C34.1884 24.4797 32.6463 22.9376 32.6463 21.0353C32.6463 19.133 34.1884 17.5908 36.0907 17.5908C37.993 17.5908 39.5352 19.133 39.5352 21.0353C39.5352 22.9376 37.993 24.4797 36.0907 24.4797Z"
      fill="#F55065"
    >
      <animate
        attributeName="opacity"
        values="1;0.5;1"
        dur="4s"
        repeatCount="indefinite"
      />
    </path>
  </g>
  <g filter="url(#filter1_f_33_318)">
    <path
      d="M15.8544 18.8821C13.9521 18.8821 12.4099 17.3399 12.4099 15.4376C12.4099 13.5353 13.9521 11.9932 15.8544 11.9932C17.7567 11.9932 19.2988 13.5353 19.2988 15.4376C19.2988 17.3399 17.7567 18.8821 15.8544 18.8821Z"
      fill="#F55065"
    >
      <animate
        attributeName="opacity"
        values="1;0.5;1"
        dur="4s"
        repeatCount="indefinite"
      />
    </path>
  </g>
  <path
    fill-rule="evenodd"
    clip-rule="evenodd"
    d="M29.7385 13.5831C30.6202 10.8693 33.535 9.38411 36.2488 10.2659C38.9627 11.1477 40.4478 14.0624 39.566 16.7763C39.4191 17.2286 38.9333 17.4761 38.481 17.3291C38.0287 17.1822 37.7812 16.6964 37.9281 16.2441C38.516 14.4349 37.5259 12.4917 35.7166 11.9038C33.9074 11.316 31.9642 12.3061 31.3764 14.1153C31.2294 14.5676 30.7436 14.8151 30.2913 14.6681C29.839 14.5212 29.5915 14.0354 29.7385 13.5831ZM15.9607 9.27753C16.8425 6.56372 19.7572 5.07855 22.4711 5.96032C25.1849 6.8421 26.67 9.75689 25.7883 12.4707C25.6413 12.923 25.1555 13.1705 24.7032 13.0236C24.2509 12.8766 24.0034 12.3908 24.1503 11.9385C24.7382 10.1293 23.7481 8.1861 21.9389 7.59826C20.1297 7.01041 18.1865 8.00052 17.5986 9.80972C17.4517 10.262 16.9659 10.5096 16.5135 10.3626C16.0612 10.2156 15.8137 9.72983 15.9607 9.27753ZM33.847 21.8507C33.346 22.8528 30.4424 24.0557 27.8356 24.1559C24.098 24.2997 20.7951 22.5281 18.5445 18.4361C18.3153 18.0194 18.4673 17.4958 18.884 17.2666C19.3007 17.0374 19.8243 17.1895 20.0535 17.6062C21.9825 21.1134 24.6688 22.5542 27.7694 22.435C28.9275 22.3904 30.0803 22.1198 31.0788 21.7061C31.4793 21.5402 31.8301 21.3601 32.0906 21.1931C32.1976 21.1245 32.2819 21.0627 32.3368 21.0148C32.3473 21.0056 32.3397 21.0142 32.3066 21.0805C32.5193 20.6551 33.0365 20.4827 33.4619 20.6954C33.8873 20.9081 34.0597 21.4253 33.847 21.8507Z"
    fill="black"
  >
    <animate
      attributeName="d"
      dur="3s"
      repeatCount="indefinite"
      values="M29.7385 13.5831C30.6202 10.8693 33.535 9.38411 36.2488 10.2659C38.9627 11.1477 40.4478 14.0624 39.566 16.7763C39.4191 17.2286 38.9333 17.4761 38.481 17.3291C38.0287 17.1822 37.7812 16.6964 37.9281 16.2441C38.516 14.4349 37.5259 12.4917 35.7166 11.9038C33.9074 11.316 31.9642 12.3061 31.3764 14.1153C31.2294 14.5676 30.7436 14.8151 30.2913 14.6681C29.839 14.5212 29.5915 14.0354 29.7385 13.5831ZM15.9607 9.27753C16.8425 6.56372 19.7572 5.07855 22.4711 5.96032C25.1849 6.8421 26.67 9.75689 25.7883 12.4707C25.6413 12.923 25.1555 13.1705 24.7032 13.0236C24.2509 12.8766 24.0034 12.3908 24.1503 11.9385C24.7382 10.1293 23.7481 8.1861 21.9389 7.59826C20.1297 7.01041 18.1865 8.00052 17.5986 9.80972C17.4517 10.262 16.9659 10.5096 16.5135 10.3626C16.0612 10.2156 15.8137 9.72983 15.9607 9.27753ZM33.847 21.8507C33.346 22.8528 30.4424 24.0557 27.8356 24.1559C24.098 24.2997 20.7951 22.5281 18.5445 18.4361C18.3153 18.0194 18.4673 17.4958 18.884 17.2666C19.3007 17.0374 19.8243 17.1895 20.0535 17.6062C21.9825 21.1134 24.6688 22.5542 27.7694 22.435C28.9275 22.3904 30.0803 22.1198 31.0788 21.7061C31.4793 21.5402 31.8301 21.3601 32.0906 21.1931C32.1976 21.1245 32.2819 21.0627 32.3368 21.0148C32.3473 21.0056 32.3397 21.0142 32.3066 21.0805C32.5193 20.6551 33.0365 20.4827 33.4619 20.6954C33.8873 20.9081 34.0597 21.4253 33.847 21.8507Z;
              M29.7385 13.5831C30.6202 10.8693 33.535 9.38411 36.2488 10.2659C38.9627 11.1477 40.4478 14.0624 39.566 16.7763C39.4191 17.2286 38.9333 17.4761 38.481 17.3291C38.0287 17.1822 37.7812 16.6964 37.9281 16.2441C38.516 14.4349 37.5259 12.4917 35.7166 11.9038C33.9074 11.316 31.9642 12.3061 31.3764 14.1153C31.2294 14.5676 30.7436 14.8151 30.2913 14.6681C29.839 14.5212 29.5915 14.0354 29.7385 13.5831ZM15.9607 9.27753C16.8425 6.56372 19.7572 5.07855 22.4711 5.96032C25.1849 6.8421 26.67 9.75689 25.7883 12.4707C25.6413 12.923 25.1555 13.1705 24.7032 13.0236C24.2509 12.8766 24.0034 12.3908 24.1503 11.9385C24.7382 10.1293 23.7481 8.1861 21.9389 7.59826C20.1297 7.01041 18.1865 8.00052 17.5986 9.80972C17.4517 10.262 16.9659 10.5096 16.5135 10.3626C16.0612 10.2156 15.8137 9.72983 15.9607 9.27753ZM33.847 21.8507C33.346 22.8528 30.4424 24.0557 27.8356 24.1559C24.098 24.2997 20.7951 22.5281 18.5445 18.4361C18.3153 18.0194 18.4673 17.4958 18.884 17.2666C19.3007 17.0374 19.8243 17.1895 20.0535 17.6062C21.9825 21.1134 24.6688 22.5542 27.7694 22.435C28.9275 22.3904 30.0803 22.1198 31.0788 21.7061C31.4793 21.5402 31.8301 21.3601 32.0906 21.1931C32.1976 21.1245 32.2819 21.0627 32.3368 21.0148C32.3473 21.0056 32.3397 21.0142 32.3066 21.0805C32.5193 20.6551 33.0365 20.4827 33.4619 20.6954C33.8873 20.9081 34.0597 21.4253 33.847 21.8507Z;
              M29.7385 13.5831C30.6202 10.8693 33.535 9.38411 36.2488 10.2659C38.9627 11.1477 40.4478 14.0624 39.566 16.7763C39.4191 17.2286 38.9333 17.4761 38.481 17.3291C38.0287 17.1822 37.7812 16.6964 37.9281 16.2441C38.516 14.4349 37.5259 12.4917 35.7166 11.9038C33.9074 11.316 31.9642 12.3061 31.3764 14.1153C31.2294 14.5676 30.7436 14.8151 30.2913 14.6681C29.839 14.5212 29.5915 14.0354 29.7385 13.5831ZM15.9607 9.27753C16.8425 6.56372 19.7572 5.07855 22.4711 5.96032C25.1849 6.8421 26.67 9.75689 25.7883 12.4707C25.6413 12.923 25.1555 13.1705 24.7032 13.0236C24.2509 12.8766 24.0034 12.3908 24.1503 11.9385C24.7382 10.1293 23.7481 8.1861 21.9389 7.59826C20.1297 7.01041 18.1865 8.00052 17.5986 9.80972C17.4517 10.262 16.9659 10.5096 16.5135 10.3626C16.0612 10.2156 15.8137 9.72983 15.9607 9.27753ZM33.847 21.8507C33.346 22.8528 30.4424 24.0557 27.8356 24.1559C24.098 24.2997 20.7951 22.5281 18.5445 18.4361C18.3153 18.0194 18.4673 17.4958 18.884 17.2666C19.3007 17.0374 19.8243 17.1895 20.0535 17.6062C21.9825 21.1134 24.6688 22.5542 27.7694 22.435C28.9275 22.3904 30.0803 22.1198 31.0788 21.7061C31.4793 21.5402 31.8301 21.3601 32.0906 21.1931C32.1976 21.1245 32.2819 21.0627 32.3368 21.0148C32.3473 21.0056 32.3397 21.0142 32.3066 21.0805C32.5193 20.6551 33.0365 20.4827 33.4619 20.6954C33.8873 20.9081 34.0597 21.4253 33.847 21.8507Z"
    />
  </path>
  <defs>
    <filter
      id="filter0_f_33_318"
      x="20.8818"
      y="5.82611"
      width="30.4181"
      height="30.4181"
      filterUnits="userSpaceOnUse"
      color-interpolation-filters="sRGB"
    >
      <feFlood flood-opacity="0" result="BackgroundImageFix" />
      <feBlend
        mode="normal"
        in="SourceGraphic"
        in2="BackgroundImageFix"
        result="shape"
      />
      <feGaussianBlur
        stdDeviation="5.88235"
        result="effect1_foregroundBlur_33_318"
      />
    </filter>
    <filter
      id="filter1_f_33_318"
      x="0.645451"
      y="0.228458"
      width="30.4181"
      height="30.4181"
      filterUnits="userSpaceOnUse"
      color-interpolation-filters="sRGB"
    >
      <feFlood flood-opacity="0" result="BackgroundImageFix" />
      <feBlend
        mode="normal"
        in="SourceGraphic"
        in2="BackgroundImageFix"
        result="shape"
      />
      <feGaussianBlur
        stdDeviation="5.88235"
        result="effect1_foregroundBlur_33_318"
      />
    </filter>
  </defs>
</svg>
