<svg
  width="31"
  height="22"
  viewBox="0 0 31 22"
  fill="none"
  xmlns="http://www.w3.org/2000/svg"
>
  <path
    d="M0.358281 14.5462C2.81977 14.3449 5.24147 14.0978 7.6678 13.9637C11.3198 13.7654 14.7922 12.788 18.307 11.9515C20.2955 11.4798 22.3585 11.1589 24.4029 11.0896C25.8539 11.0382 27.3434 11.4616 28.7869 11.7859C29.7001 11.9931 29.7019 12.1374 29.4218 13.1186C26.3791 11.999 23.2632 11.8753 20.1005 12.4896C23.2614 12.2691 26.3941 12.243 29.3337 13.7439C28.7484 15.6162 27.6235 17.0223 26.0195 18.0625C23.7531 19.5297 21.236 20.3205 18.5013 20.2234C14.98 20.0991 12.5337 18.2654 10.8991 15.3462C10.6593 14.917 10.3935 14.7423 9.90595 14.7204C7.97815 14.6277 6.112 14.871 4.27915 15.4409C3.45642 15.6989 2.60748 15.9229 1.75087 16.0267C0.686354 16.1685 0.265452 15.6811 0.358281 14.5462Z"
    fill="#F54748"
  />
  <path
    d="M13.5281 12.3843C13.3001 11.4076 13.1737 10.0669 13.9578 9.08799C14.2411 8.73314 14.4599 8.65396 14.7163 8.35652C15.2176 7.76766 15.5877 6.63614 14.8027 4.23148C15.1228 4.49537 15.5389 4.91195 15.7959 5.51847C16.0893 6.2091 15.9972 6.71448 16.0573 7.27549C16.1266 7.93931 16.429 8.85935 17.4848 9.93379C17.3966 9.56726 17.3135 9.06049 17.3377 8.45416C17.3647 7.85862 17.4852 7.36279 17.6039 7.011C17.702 7.38896 17.871 7.87517 18.1758 8.39447C18.3792 8.7395 18.5953 9.02235 18.7946 9.24745C18.5313 8.79513 18.1918 8.08987 18.0093 7.1769C17.87 6.47876 17.7529 5.32184 18.1518 3.98886C18.4936 2.8478 19.0764 2.03753 19.4717 1.57298C19.4088 1.99652 19.3479 2.81064 19.6983 3.72437C20.2352 5.13288 21.3787 5.8352 21.7082 6.0331C22.5339 6.52801 22.7316 6.31683 24.3972 6.93861C25.6987 7.42275 26.3493 7.66656 26.9136 8.22634C27.2363 8.54322 27.975 9.40327 28.0422 11.1256C27.2703 10.9309 26.2218 10.7258 24.968 10.6538C23.5652 10.5723 22.4956 10.6889 21.7722 10.7728C20.6651 10.9002 19.767 11.1024 17.971 11.5031C16.9274 11.7382 16.18 11.929 14.8664 12.1613C14.3056 12.2665 13.8427 12.3382 13.5281 12.3843Z"
    fill="#FDC55E"
  />
  <path
    d="M22.3344 10.5807C22.3476 10.6381 23.1721 10.4014 24.2941 10.3527C25.6289 10.2946 26.7589 10.5279 27.5808 10.7763C27.6392 10.1976 27.5042 9.78124 27.4104 9.56193C27.1657 8.98111 26.7397 8.63402 26.2794 8.26278C25.9216 7.97094 25.592 7.77304 25.3657 7.64755C25.6634 7.9165 26.028 8.29687 26.3706 8.80192C26.7262 9.3257 26.9423 9.81606 27.0767 10.1972C26.5295 10.0645 25.7162 9.92595 24.7424 9.99127C23.4227 10.0859 22.3182 10.516 22.3344 10.5807Z"
    fill="white"
  />
</svg>
